<?xml version="1.0" encoding="UTF-8"?>
<svg width="156px" height="24px" viewBox="0 0 156 24" version="1.1" xmlns="http://www.w3.org/2000/svg" xmlns:xlink="http://www.w3.org/1999/xlink">
    <title>img_header</title>
    <defs>
        <polygon id="path-1" points="0 0 2.8826785 0 2.8826785 23.9477982 0 23.9477982"></polygon>
        <polygon id="path-3" points="0 0 15.6253301 0 15.6253301 18.2972312 0 18.2972312"></polygon>
    </defs>
    <g id="Page-1" stroke="none" stroke-width="1" fill="none" fill-rule="evenodd">
        <g id="04.00-Buscador-de-sesiones" transform="translate(-24.000000, -24.000000)">
            <g id="img_header" transform="translate(24.000000, 24.000000)">
                <path d="M153.16618,14.7638663 C153.16618,15.6415805 152.993702,16.4778602 152.645803,17.2470274 C152.296432,18.0229058 151.815495,18.7127052 151.21918,19.297459 C150.627281,19.8795866 149.921475,20.3496657 149.116479,20.6861033 C147.501779,21.3604377 145.58274,21.3508085 143.997768,20.6875623 C143.201013,20.3496657 142.49403,19.8795866 141.903308,19.297459 C141.302872,18.7071611 140.818992,18.0202796 140.475508,17.2470274 C140.12908,16.4807781 139.952187,15.6427477 139.952187,14.7638663 C139.952187,13.8855684 140.12908,13.0422857 140.475508,12.2605714 C140.824584,11.4820669 141.302872,10.7893495 141.899187,10.2072219 C142.49403,9.62538602 143.201013,9.15822492 143.999239,8.81478419 C144.794522,8.47542857 145.657206,8.30356231 146.563452,8.30356231 C147.452626,8.30356231 148.311189,8.47805471 149.112359,8.81595137 C149.915882,9.15822492 150.621688,9.62538602 151.223301,10.2072219 C151.815495,10.7867234 152.296432,11.4806079 152.645803,12.2605714 C152.993702,13.0449119 153.16618,13.8855684 153.16618,14.7638663 M155.255342,11.1537994 C154.764398,10.0327295 154.080961,9.04763526 153.229167,8.21048024 C152.37649,7.37653495 151.362225,6.71416413 150.214923,6.23503951 C147.915608,5.27474772 145.131237,5.27328875 142.843401,6.23503951 C141.702868,6.71416413 140.695667,7.37653495 139.847111,8.21456535 C138.996788,9.0502614 138.319533,10.0382736 137.831237,11.1537994 C137.340293,12.2801216 137.087757,13.4963161 137.087757,14.7638663 C137.087757,16.0308328 137.340293,17.2470274 137.831237,18.3663465 C138.319533,19.4763283 139.001203,20.4628815 139.848288,21.2985775 C140.695667,22.13369 141.70434,22.7992705 142.843401,23.2783951 C143.98776,23.7581033 145.23072,24 146.526954,24 C147.821717,24 149.067326,23.7581033 150.214923,23.2783951 C151.362225,22.7992705 152.375019,22.13369 153.229167,21.2985775 C154.080961,20.4713435 154.764398,19.4830395 155.255342,18.3663465 C155.748936,17.2470274 156,16.0363769 156,14.7638663 C156,13.4948571 155.748936,12.2774954 155.255342,11.1537994" id="Fill-1" fill="#FFFFFF"></path>
                <path d="M134.909236,19.2863416 C134.659643,19.0672049 134.33117,18.9373568 133.970909,18.9373568 C133.652443,18.9373568 133.364881,19.0374419 133.12353,19.2133933 C133.053479,19.2667915 132.988726,19.3251502 132.928682,19.3893447 C132.704108,19.5790103 132.466877,19.7605058 132.213164,19.9294541 C131.8582,20.168141 131.479396,20.3788158 131.083815,20.5629374 C130.689706,20.7429739 130.277348,20.8856608 129.859398,20.9907064 C128.577292,21.2970894 127.201,21.1240559 126.094315,20.6358857 C125.342299,20.3049921 124.68182,19.8404571 124.130538,19.2597884 C123.580433,18.6744511 123.145706,17.9881532 122.832832,17.2108158 C122.525551,16.4431076 122.367201,15.598366 122.367201,14.7116061 C122.367201,13.8382687 122.525551,12.997904 122.832832,12.2217337 C123.145706,11.4429374 123.580433,10.7560559 124.127595,10.1768462 C124.677405,9.59880365 125.33965,9.13864559 126.094315,8.80629301 C127.579804,8.15121702 129.525332,8.1345848 131.030541,8.78820182 C131.291613,8.90229301 131.546798,9.03651793 131.793742,9.1774541 C132.037742,9.32422614 132.273501,9.4829617 132.497782,9.6574541 C132.628465,9.7622079 132.762974,9.86579453 132.885121,9.98134468 C132.945459,10.0411623 133.005797,10.1030225 133.071727,10.1532109 C133.32132,10.3443356 133.621538,10.4578432 133.956781,10.4578432 C134.056265,10.4578432 134.156043,10.4493812 134.248463,10.428372 C134.909236,10.2929799 135.404301,9.71493739 135.404301,9.01988571 C135.404301,8.93497386 135.39606,8.85210456 135.381932,8.76602553 C135.338371,8.53521702 135.237415,8.32162432 135.095842,8.14012888 C135.095842,8.13750274 135.092899,8.13166687 135.092899,8.13166687 C135.087307,8.1261228 135.084658,8.12203769 135.081714,8.12057872 C135.018727,8.04266991 134.941613,7.96709544 134.860083,7.90173374 C134.775904,7.82236596 134.682013,7.74941763 134.588121,7.67851185 C134.503942,7.60527173 134.4127,7.53319878 134.318514,7.45937508 C134.231686,7.38788571 134.138972,7.32252401 134.048024,7.25424438 C133.955309,7.18538116 133.862889,7.12147842 133.770175,7.05611672 C133.671868,6.99425653 133.579448,6.93443891 133.486734,6.87199514 C133.390194,6.81276109 133.291887,6.7514845 133.192403,6.69604377 C133.098217,6.64089483 132.998733,6.5854541 132.897778,6.53263951 C132.79535,6.47749058 132.692923,6.42613495 132.593145,6.3762383 C132.488069,6.33013495 132.38417,6.28082188 132.277622,6.23501033 C132.176667,6.18628085 132.071296,6.14163647 131.964748,6.10078541 C131.940907,6.08969726 131.915595,6.07977629 131.889105,6.06722918 C129.737251,5.22044498 127.019986,5.26625653 124.899037,6.18336292 C123.793823,6.66598906 122.818705,7.33477933 122.008117,8.16668207 C121.194291,9.00179453 120.550589,9.99651793 120.096142,11.1175878 C119.645816,12.2357398 119.413,13.4490164 119.413,14.7116061 C119.413,15.9876182 119.645816,17.2023538 120.096142,18.3219647 C120.552061,19.4322383 121.194291,20.4252109 122.005173,21.2638249 C122.818705,22.1088584 123.793823,22.7796912 124.899037,23.2573568 C126.008665,23.738524 127.237497,23.9847976 128.551979,23.9847976 C129.815837,23.9847976 130.998459,23.748445 132.057462,23.2824511 C133.068784,22.8389252 134.000342,22.2282018 134.846249,21.4648705 C134.927485,21.4035939 135.004599,21.3356061 135.073473,21.2527368 C135.276856,21.0099647 135.40018,20.6942444 135.40018,20.3496365 C135.40018,20.1208705 135.344258,19.9031927 135.244479,19.7117763 C135.161772,19.548372 135.049632,19.4045179 134.909236,19.2863416" id="Fill-3" fill="#FFFFFF"></path>
                <g id="Group-7" transform="translate(113.239376, 0.000000)">
                    <mask id="mask-2" fill="white">
                        <use xlink:href="#path-1"></use>
                    </mask>
                    <g id="Clip-6"></g>
                    <path d="M2.8826785,22.5077982 L2.8826785,3.02446687 C2.8826785,2.67285593 2.87296558,2.3291234 2.8532454,1.98509909 C2.84353247,1.76800486 2.83205356,1.55587112 2.81822,1.34957325 C2.81380503,1.31047295 2.8096844,1.26757933 2.80703542,1.22847903 C2.72844902,0.5707769 2.1854082,0.052843769 1.51492202,0.00411428571 C1.47989662,0.00411428571 1.44487122,-0.000262613982 1.40690252,-0.000262613982 C1.37040546,-0.000262613982 1.33538007,0.00411428571 1.29888301,0.00411428571 C0.594843093,0.0554699088 0.0379687081,0.623591489 0.00147165535,1.32856413 C0.00147165535,1.35103222 0,1.37466748 0,1.39684377 C0,1.42106261 0.00147165535,1.44323891 0.00147165535,1.46424802 L0.00147165535,22.4870809 L0.00147165535,22.5188863 L0.00147165535,22.5524426 C0.0197201817,23.3172328 0.642524727,23.9352511 1.4180871,23.9463392 C1.4266227,23.9477982 1.43221499,23.9477982 1.44075059,23.9477982 C1.45046351,23.9477982 1.45752746,23.9477982 1.46311975,23.9463392 C2.24427441,23.9352511 2.87561456,23.3061447 2.8826785,22.5328924 L2.8826785,22.5188863 L2.8826785,22.5077982 Z" id="Fill-5" fill="#FFFFFF" mask="url(#mask-2)"></path>
                </g>
                <path d="M88.5318427,21.1213714 C88.5177148,21.1213714 88.5038812,21.1184535 88.4882817,21.1184535 C88.2183801,21.1184535 87.9531878,21.1117422 87.6874068,21.079645 C87.6067601,21.0700158 87.533766,21.0574687 87.4537079,21.0449216 C87.3745329,21.0323745 87.2932975,21.0183684 87.2138281,21.0031951 C87.0398785,20.9725568 86.9003655,20.8981495 86.7902857,20.7925204 C86.6807946,20.6845568 86.5904349,20.4934322 86.5286254,20.248034 C86.4565143,19.9463198 86.4200172,19.5039611 86.4200172,18.9413836 L86.4200172,8.63028328 L88.6981397,8.63028328 L88.7302218,8.63028328 L88.7596549,8.63028328 C89.526976,8.6121921 90.1400676,7.99563283 90.1400676,7.23492766 C90.1400676,6.47188815 89.526976,5.85386991 88.7625982,5.83577872 C88.7514136,5.83577872 88.7417007,5.83431976 88.7302218,5.83431976 C88.7163882,5.83431976 88.706381,5.83577872 88.6937247,5.83577872 L86.4200172,5.83577872 L86.4200172,1.54087295 L86.4200172,1.4947696 L86.4200172,1.44749909 C86.3988254,0.771705775 85.9190657,0.210587234 85.2794843,0.0553531915 C85.1673442,0.0276328267 85.0487288,0.0124595745 84.9245211,0.0124595745 C84.629307,0.0124595745 84.3544018,0.100581155 84.1221746,0.248228571 C83.7112884,0.50529848 83.4375605,0.956119149 83.4307909,1.47551125 C83.4307909,1.48368146 83.4293192,1.48776657 83.4293192,1.4947696 C83.4293192,1.50323161 83.4307909,1.51023465 83.4307909,1.51577872 L83.4307909,5.83577872 L81.7236707,5.83577872 L81.7101314,5.83577872 L81.6974752,5.83577872 C80.9940239,5.8413228 80.4162521,6.36071489 80.3150022,7.03329848 C80.3038176,7.09924377 80.2982253,7.16606444 80.2982253,7.23492766 C80.2982253,7.30437447 80.3038176,7.36973617 80.3150022,7.43714043 C80.4133087,8.09425897 80.9716548,8.60518906 81.6583292,8.63028328 C81.675106,8.63028328 81.6918829,8.63174225 81.7101314,8.63174225 C81.729263,8.63174225 81.7475115,8.63028328 81.7628167,8.63028328 L83.4307909,8.63028328 L83.4307909,19.4018334 C83.4307909,20.4128973 83.5505836,21.1957787 83.7898748,21.7957058 C84.0394675,22.4181009 84.3858952,22.9013106 84.8347501,23.2281191 C85.2697714,23.5432559 85.7922091,23.7498456 86.3835202,23.8365082 C86.9186141,23.9103319 87.5043329,23.9526419 88.1180132,23.9526419 L88.4491356,23.9526419 C88.4617919,23.9526419 88.4756254,23.9541009 88.4882817,23.9541009 C88.5038812,23.9541009 88.5135941,23.9526419 88.530371,23.9526419 C89.2962204,23.9298821 89.9178477,23.306028 89.9178477,22.5383198 C89.9178477,21.7694444 89.2982808,21.1444231 88.5318427,21.1213714" id="Fill-8" fill="#FFFFFF"></path>
                <path d="M109.100139,10.970845 C108.634508,9.87428571 107.990511,8.9104924 107.189636,8.10543465 C106.38729,7.30008511 105.444547,6.6590152 104.37848,6.20148328 C102.195721,5.26628571 99.5558657,5.29137994 97.3928267,6.23912462 C96.2911455,6.71970821 95.3142607,7.38237082 94.492194,8.21719149 C93.668067,9.05172036 93.0093541,10.0438176 92.5331264,11.1578845 C92.0518951,12.2801216 91.8087776,13.4948571 91.8087776,14.7638663 C91.8087776,16.0322918 92.0574874,17.2470274 92.5528466,18.3663465 C93.0402588,19.4815805 93.7248729,20.4657994 94.57755,21.2915745 C95.4314044,22.1196839 96.4474353,22.7811793 97.5906172,23.260304 C98.740863,23.7385532 99.9864721,23.9848267 101.279763,23.9848267 C102.32611,23.9848267 103.308293,23.8336778 104.20718,23.5375076 C105.095176,23.2477568 105.939907,22.8389544 106.71959,22.3221884 C106.899132,22.1964255 107.080145,22.0537386 107.259687,21.896462 C107.282056,21.8777872 107.297656,21.859696 107.315904,21.8445228 C107.320025,21.8389787 107.322968,21.8375198 107.327089,21.8334347 C107.581097,21.5795745 107.737975,21.2332158 107.737975,20.8465897 C107.737975,20.0747964 107.105458,19.4497751 106.326952,19.4497751 C106.037919,19.4497751 105.768606,19.538772 105.542854,19.6855441 L105.426299,19.7730821 L105.178178,19.9560365 C104.623952,20.3607538 104.00674,20.6694711 103.34479,20.875769 C101.882847,21.3312584 100.217816,21.2915745 98.8220984,20.743003 C98.0618412,20.4418723 97.3801705,20.0289848 96.7968063,19.5122188 C96.2169741,18.9998298 95.7378031,18.3788936 95.3737156,17.672462 C95.0849768,17.1113435 94.8848316,16.5099574 94.7859364,15.8791003 L94.7888797,15.8791003 C94.7158856,15.4848875 94.6752679,15.0787112 94.6752679,14.6658237 C94.6752679,14.1820304 94.7311908,13.711076 94.8324407,13.255003 L94.8265541,13.255003 C94.838033,13.2138602 94.8512779,13.1750517 94.8639341,13.1333252 C94.8792394,13.0694225 94.8918956,13.0031854 94.9101441,12.9392827 L94.9101441,12.9629179 C95.0455364,12.498383 95.2259614,12.0498967 95.4593659,11.6285471 C95.831106,10.9653009 96.2996811,10.3790881 96.8512575,9.88683283 C97.4025396,9.39953799 98.0324081,9.01145289 98.7282068,8.736 C100.108325,8.18947112 101.738331,8.17984195 103.120215,8.74241945 C103.807478,9.024 104.431754,9.41471125 104.971852,9.90200608 C105.506357,10.3875502 105.951091,10.970845 106.294576,11.631465 C106.556825,12.1479392 106.751966,12.6909666 106.864106,13.255003 L96.8877546,13.255003 C96.1845977,13.2911854 95.6227196,13.8633921 95.6227196,14.5698237 C95.6227196,15.2660426 96.1748847,15.8338723 96.8695061,15.8791003 L108.161812,15.8791003 C108.235983,15.8791003 108.310449,15.8764742 108.376379,15.8700547 L108.394628,15.8700547 C108.548857,15.8700547 108.693374,15.8478784 108.832298,15.8020669 C109.390644,15.6205714 109.795938,15.1067234 109.804474,14.4954164 L109.804474,14.4746991 L109.804474,14.4399757 C109.791817,13.2071489 109.55753,12.0373495 109.100139,10.970845" id="Fill-10" fill="#FFFFFF"></path>
                <path d="M58.5855988,16.7427793 C58.303041,16.1650286 57.8974528,15.6360073 57.3708945,15.1700134 C56.8622904,14.7104389 56.2344822,14.3028036 55.5151371,13.9552778 C54.8078595,13.6144632 54.0028641,13.3217945 53.1142786,13.0833994 L52.583894,12.9436304 C52.2501225,12.856676 51.8951593,12.7425848 51.5178268,12.5998979 C51.1572713,12.4630468 50.8276205,12.2911805 50.5353497,12.0904267 C50.2519089,11.9019283 50.0155611,11.6690772 49.8324871,11.405296 C49.6717824,11.1689435 49.5946676,10.8958249 49.5946676,10.5731015 C49.5946676,10.2141957 49.6591261,9.9019769 49.8001107,9.61689483 C49.9410953,9.32977021 50.1409461,9.07678541 50.3914218,8.86611064 C50.6551425,8.6539769 50.9686051,8.4835696 51.3291606,8.36947842 C52.3004532,8.05113191 53.5849139,8.14012888 54.4973403,8.68753313 C54.8493602,8.89120486 55.1587022,9.14156353 55.4218342,9.42577021 L55.4203625,9.42577021 L55.7570772,9.87980061 C55.8032872,9.95362432 55.8545008,10.0245301 55.9077748,10.0878492 C56.179148,10.3889799 56.568548,10.5801046 57.0103389,10.5801046 C57.8182777,10.5801046 58.4749304,9.92853009 58.4749304,9.12609848 C58.4749304,8.87719878 58.4166528,8.64843283 58.30569,8.44476109 C58.303041,8.44067599 58.3000977,8.43775805 58.298626,8.43367295 C58.298626,8.43075502 58.2959771,8.42521094 58.2930337,8.42375198 C58.2553594,8.35080365 58.2067947,8.28544195 58.1591131,8.22416535 C57.5580891,7.35987356 56.8231444,6.69866991 55.9672296,6.25310152 C54.2615811,5.36721702 51.9525538,5.2329921 50.2180608,5.81920486 C49.4984214,6.05905897 48.8776771,6.41212888 48.3687787,6.8649921 C47.8601746,7.31814711 47.4554694,7.86671854 47.1755606,8.49757568 C46.8874104,9.12463951 46.7434825,9.8275696 46.7434825,10.5911927 C46.7434825,11.2658188 46.9112513,11.8978432 47.2464943,12.4700498 C47.5640776,13.0157033 47.984971,13.510293 48.503288,13.9398128 C49.0062998,14.3611623 49.5846604,14.7241532 50.2180608,15.0247003 C50.8402767,15.3223295 51.4798581,15.5636426 52.1344504,15.745138 C52.6092064,15.8577702 53.098679,15.9987064 53.5972759,16.1787429 C54.0764468,16.346524 54.5167661,16.5598249 54.9096981,16.808141 C55.2814382,17.0485787 55.5901915,17.3304511 55.8221244,17.6543416 C56.0331598,17.9464267 56.1370587,18.2808219 56.1370587,18.6799951 C56.1370587,19.1133082 56.0331598,19.469296 55.8180038,19.7704267 C55.5901915,20.0928584 55.2940945,20.3633508 54.9364822,20.5775271 C54.5703344,20.79929 54.1632745,20.9682383 53.7314908,21.0753264 C52.9656414,21.2652839 52.3663833,21.3180985 51.5557955,21.1074237 C51.2105452,21.0225119 50.8641175,20.8856608 50.5324064,20.7123356 C50.1998123,20.535217 49.8904704,20.3189982 49.6085012,20.056676 C49.373625,19.844834 49.1793665,19.5985605 49.024254,19.3251502 C49.0186617,19.3184389 49.0145411,19.3114359 49.0118921,19.3044328 C48.762888,18.8559465 48.2781247,18.5507307 47.7247823,18.5507307 C47.5346445,18.5507307 47.3530422,18.5869131 47.1867451,18.6534419 L47.0852009,18.6945848 C46.5913134,18.9303538 46.2519497,19.4296122 46.2519497,20.0108644 C46.2519497,20.196445 46.2884467,20.3758979 46.3534939,20.5407611 C46.3635011,20.5588523 46.3676218,20.5775271 46.3773347,20.5985362 C46.5715932,21.0476061 46.8332535,21.4549495 47.1475991,21.8223173 C47.5599569,22.299983 48.0570821,22.7032413 48.6260241,23.0230468 C49.1834871,23.3338067 49.7959901,23.5710347 50.4488164,23.731521 C51.0998767,23.8838371 51.7871398,23.9667064 52.487942,23.9667064 C53.3359099,23.9667064 54.1576822,23.8520316 54.9308899,23.6299769 C55.7135162,23.4012109 56.4134355,23.0662322 57.0118106,22.620372 C57.6225476,22.1698432 58.1158464,21.6046395 58.4749304,20.9411015 C58.8346029,20.2673508 59.0212088,19.4955574 59.0212088,18.6467307 C59.0212088,17.9729799 58.8746319,17.3304511 58.5855988,16.7427793" id="Fill-12" fill="#FFFFFF"></path>
                <path d="M68.8560166,21.1213714 C68.8418887,21.1213714 68.8245232,21.1184535 68.811867,21.1184535 C68.5416711,21.1184535 68.2794221,21.1117422 68.0080488,21.079645 C67.9315227,21.0700158 67.8585286,21.0574687 67.7787649,21.0449216 C67.6957636,21.0323745 67.6151168,21.0183684 67.5374134,21.0031951 C67.3605205,20.9725568 67.2239509,20.8981495 67.1150484,20.7925204 C67.0029082,20.6845568 66.9151976,20.4934322 66.8522107,20.248034 C66.7798053,19.9463198 66.7433082,19.5039611 66.7433082,18.9413836 L66.7433082,8.63028328 L69.0187817,8.63028328 L69.0538071,8.63028328 L69.0826516,8.63028328 C69.8470294,8.6121921 70.4636529,7.99563283 70.4636529,7.23492766 C70.4636529,6.47188815 69.85115,5.85386991 69.0867722,5.83577872 C69.0755876,5.83577872 69.06352,5.83431976 69.0538071,5.83431976 C69.0385019,5.83431976 69.0299663,5.83577872 69.0173101,5.83577872 L66.7433082,5.83577872 L66.7433082,1.54087295 L66.7433082,1.4947696 L66.7433082,1.44749909 C66.7209391,0.771705775 66.2441227,0.210587234 65.6030696,0.0553531915 C65.4906352,0.0276328267 65.3723141,0.0124595745 65.2466347,0.0124595745 C64.9514207,0.0124595745 64.6771041,0.100581155 64.4442882,0.248228571 C64.0345794,0.50529848 63.7626175,0.956119149 63.7555535,1.47551125 C63.7555535,1.48368146 63.7540819,1.48776657 63.7540819,1.4947696 C63.7540819,1.50323161 63.7555535,1.51023465 63.7555535,1.51577872 L63.7555535,5.83577872 L62.0484333,5.83577872 L62.0357771,5.83577872 L62.0231208,5.83577872 C61.3187866,5.8413228 60.7374827,6.36071489 60.6400591,7.03329848 C60.6288746,7.09924377 60.6244596,7.16606444 60.6244596,7.23492766 C60.6244596,7.30437447 60.6288746,7.36973617 60.6400591,7.43714043 C60.7374827,8.09425897 61.2964174,8.60518906 61.9804428,8.63028328 C61.9998687,8.63028328 62.0160569,8.63174225 62.0357771,8.63174225 C62.0540256,8.63174225 62.0681535,8.63028328 62.086402,8.63028328 L63.7555535,8.63028328 L63.7555535,19.4018334 C63.7555535,20.4128973 63.8712256,21.1957787 64.1146374,21.7957058 C64.3601095,22.4181009 64.7109522,22.9013106 65.1583354,23.2281191 C65.5930624,23.5432559 66.1143227,23.7498456 66.7041622,23.8365082 C67.2433767,23.9103319 67.8276239,23.9526419 68.4401268,23.9526419 L68.7712493,23.9526419 C68.7865545,23.9526419 68.7977391,23.9541009 68.811867,23.9541009 C68.8245232,23.9541009 68.8377681,23.9526419 68.851896,23.9526419 C69.6218661,23.9298821 70.2384897,23.306028 70.2384897,22.5383198 C70.2384897,21.7694444 69.6233377,21.1444231 68.8560166,21.1213714" id="Fill-14" fill="#FFFFFF"></path>
                <path d="M29.1661782,13.2550322 C29.1747138,13.2138894 29.18737,13.1750809 29.197083,13.1333544 C29.1858984,13.1750809 29.1717705,13.2138894 29.1620576,13.2550322 L29.1661782,13.2550322 Z" id="Fill-16" fill="#FFFFFF"></path>
                <path d="M29.1970535,13.1333252 C29.2111814,13.0764255 29.225015,13.0201094 29.2432635,12.9629179 L29.2432635,12.9392827 C29.225015,13.0031854 29.2111814,13.0694225 29.1970535,13.1333252" id="Fill-18" fill="#FFFFFF"></path>
                <path d="M43.4301977,10.970845 C42.9686866,9.87428571 42.3255732,8.9104924 41.5223437,8.10543465 C40.7199972,7.30008511 39.7751945,6.6590152 38.7120706,6.20148328 C36.5287228,5.26628571 33.888573,5.29137994 31.7249454,6.23912462 C30.6250301,6.71970821 29.6472623,7.38237082 28.8266673,8.21719149 C28.0019516,9.05172036 27.3411784,10.0438176 26.8655394,11.1578845 C26.3851911,12.2801216 26.1417793,13.4948571 26.1417793,14.7638663 C26.1417793,16.0322918 26.3928437,17.2470274 26.8852596,18.3663465 C27.3747321,19.4815805 28.0566972,20.4657994 28.9102573,21.2915745 C29.7644061,22.1196839 30.7807313,22.7811793 31.9239132,23.260304 C33.075042,23.7385532 34.3177077,23.9848267 35.6133531,23.9848267 C36.6582284,23.9848267 37.6424715,23.8336778 38.5407699,23.5375076 C39.4287668,23.2477568 40.2711423,22.8389544 41.0525913,22.3221884 C41.2327219,22.1964255 41.4131469,22.0537386 41.5947491,21.896462 C41.6156466,21.8777872 41.6312462,21.859696 41.650672,21.8445228 C41.6536153,21.8389787 41.6565587,21.8375198 41.6606793,21.8334347 C41.913804,21.5795745 42.0674448,21.2332158 42.0674448,20.8465897 C42.0674448,20.0747964 41.438165,19.4497751 40.6596593,19.4497751 C40.3694489,19.4497751 40.1021963,19.538772 39.87615,19.6855441 L39.7584176,19.7730821 L39.5150058,19.9560365 C38.9575427,20.3607538 38.3403305,20.6694711 37.6733763,20.875769 C36.2158488,21.3312584 34.5514066,21.2915745 33.1521567,20.743003 C32.3933712,20.4418723 31.7122891,20.0289848 31.1301023,19.5122188 C30.5499757,18.9998298 30.0716877,18.3788936 29.7055399,17.672462 C29.4165068,17.1113435 29.2181276,16.5099574 29.1171721,15.8791003 L29.1212927,15.8791003 C29.0497703,15.4848875 29.0070922,15.0787112 29.0070922,14.6658237 C29.0070922,14.1820304 29.0650755,13.711076 29.166031,13.255003 L29.1619104,13.255003 C29.1719176,13.2138602 29.1857512,13.1750517 29.1969358,13.1333252 C29.2110637,13.0694225 29.2251916,13.0031854 29.2434401,12.9392827 L29.2434401,12.9629179 C29.3773607,12.498383 29.5604347,12.0498967 29.7926619,11.6285471 C30.167051,10.9653009 30.6320941,10.3790881 31.1839648,9.88683283 C31.7331866,9.39953799 32.3651154,9.01145289 33.0603254,8.736 C34.4392665,8.18947112 36.0733926,8.17984195 37.4523336,8.74241945 C38.14254,9.024 38.7644616,9.41471125 39.3024988,9.90200608 C39.8384756,10.3875502 40.2823269,10.970845 40.6281659,11.631465 C40.8904149,12.1479392 41.0834961,12.6909666 41.1947532,13.255003 L31.2219336,13.255003 C30.5178936,13.2911854 29.9560156,13.8633921 29.9560156,14.5698237 C29.9560156,15.2660426 30.5078864,15.8338723 31.203685,15.8791003 L42.4924589,15.8791003 C42.5701623,15.8791003 42.6431564,15.8764742 42.7099696,15.8700547 L42.7282181,15.8700547 C42.8824476,15.8700547 43.0260811,15.8478784 43.1644167,15.8020669 C43.7233514,15.6205714 44.127468,15.1067234 44.1371809,14.4954164 L44.1371809,14.4746991 L44.1371809,14.4399757 C44.1245247,13.2071489 43.8896485,12.0373495 43.4301977,10.970845" id="Fill-20" fill="#FFFFFF"></path>
                <g id="Group-24" transform="translate(0.000000, 5.605700)">
                    <mask id="mask-4" fill="white">
                        <use xlink:href="#path-3"></use>
                    </mask>
                    <g id="Clip-23"></g>
                    <path d="M15.469629,2.02271125 C15.4934698,1.9678541 15.515839,1.91620669 15.5396798,1.86485106 C15.5929537,1.71807903 15.6253301,1.56021884 15.6253301,1.39535562 C15.6253301,0.91418845 15.3804467,0.489337386 15.0087065,0.239854103 C14.7835433,0.0889969605 14.51217,0 14.2219596,0 C13.7148272,0 13.2771569,0.264948328 13.0281528,0.665288754 C12.9642829,0.745240122 12.9024734,0.845325228 12.8506711,0.965835866 C12.8506711,0.965835866 8.6747019,10.8444985 8.01127967,12.3489848 L7.79730098,12.830152 C7.73696311,12.6877568 7.67662525,12.5471125 7.61687604,12.4047173 L2.722739,0.897556231 C2.71714671,0.886468085 2.71008276,0.879465046 2.70596213,0.871878419 C2.50051904,0.362990881 1.99397527,0 1.40678478,0 C1.16572764,0 0.943213348,0.0639027356 0.743362551,0.171574468 C0.30304327,0.404717325 -0.000117732428,0.860790274 -0.000117732428,1.39535562 C-0.000117732428,1.56576292 0.0337303407,1.72654103 0.0920078926,1.87739818 L0.143810161,1.9941155 L6.83012909,17.6030152 C6.90165154,17.7728389 7.00201843,17.9193191 7.13299576,18.049459 C7.44292638,18.3470881 8.08751142,18.416535 8.46778716,18.0342857 C8.57639533,17.9193191 8.66057401,17.7941398 8.72091188,17.6587477 C8.72091188,17.6587477 15.2656576,2.47615805 15.469629,2.02271125" id="Fill-22" fill="#FFFFFF" mask="url(#mask-4)"></path>
                </g>
                <path d="M24.7664585,5.86501641 C24.5357029,5.70161216 24.2578544,5.60561216 23.9549877,5.60561216 C23.4175392,5.60561216 22.9583827,5.90820182 22.7176199,6.34968511 C22.6658176,6.41796474 22.6222566,6.49091307 22.5866426,6.57290699 L17.5206162,18.4442261 L17.025257,17.2720924 L16.1722856,15.221369 C16.1655159,15.2102809 16.158452,15.2047368 16.1569803,15.1965666 C16.1310792,15.1393751 16.0945822,15.0926881 16.0622057,15.0413325 C15.8232089,14.617065 15.380535,14.3223538 14.8536824,14.3223538 C14.6146855,14.3223538 14.3909939,14.3871319 14.1923204,14.4942201 C13.7505295,14.7270711 13.4476628,15.1851866 13.4476628,15.7171258 C13.4476628,15.884907 13.4826882,16.0348888 13.5365508,16.1831198 C13.5380225,16.1886638 13.5380225,16.1956669 13.5394941,16.2012109 L13.5927681,16.3158857 L15.336974,20.3607246 L15.3413889,20.3592657 L15.4402842,20.5915331 L15.4388125,20.5915331 L15.45971,20.6402626 L16.5181246,23.0676912 L16.6423323,23.3478128 C16.7959731,23.6746213 17.1332765,23.8978432 17.5176729,23.9004693 C17.5394534,23.9004693 17.5577019,23.9033872 17.5730071,23.9033872 C17.8149473,23.9033872 18.0248053,23.8213933 18.1881591,23.659448 C18.3011822,23.5473994 18.3909532,23.4263052 18.4757205,23.266986 C19.6415659,20.5845301 24.097444,10.1823903 25.2138417,7.61023222 C25.2350335,7.56646322 25.2553424,7.52211064 25.2721193,7.47600729 C25.3295138,7.32923526 25.3648336,7.16874894 25.3648336,7.00125957 C25.3648336,6.52826261 25.127014,6.11683404 24.7664585,5.86501641" id="Fill-25" fill="#FFFFFF"></path>
            </g>
        </g>
    </g>
</svg>