<?xml version="1.0" encoding="UTF-8"?>
<svg width="355px" height="55px" viewBox="0 0 355 55" version="1.1" xmlns="http://www.w3.org/2000/svg" xmlns:xlink="http://www.w3.org/1999/xlink">
    <title>img_login</title>
    <defs>
        <polygon id="path-1" points="0 0 6.55994147 0 6.55994147 54.8803708 0 54.8803708"></polygon>
        <polygon id="path-3" points="0 1.41831331e-14 35.5576423 1.41831331e-14 35.5576423 41.9311548 0 41.9311548"></polygon>
    </defs>
    <g id="Page-1" stroke="none" stroke-width="1" fill="none" fill-rule="evenodd">
        <g id="01.00-Login" transform="translate(-542.000000, -94.000000)">
            <g id="img_login" transform="translate(542.000000, 94.000000)">
                <path d="M348.551244,33.8338602 C348.551244,35.8452888 348.158746,37.7617629 347.367052,39.5244377 C346.572009,41.3024924 345.477569,42.8832827 344.120571,44.2233435 C342.773619,45.557386 341.167459,46.6346505 339.335578,47.4056535 C335.6611,48.951003 331.294057,48.9289362 327.687228,47.408997 C325.874101,46.6346505 324.265261,45.557386 322.920989,44.2233435 C321.554613,42.8705775 320.453476,41.2964742 319.671828,39.5244377 C318.883483,37.7684498 318.480938,35.8479635 318.480938,33.8338602 C318.480938,31.8210942 318.883483,29.8885714 319.671828,28.0971429 C320.466202,26.3130699 321.554613,24.7255927 322.911612,23.3915502 C324.265261,22.0581763 325.874101,20.9875988 327.690577,20.2005471 C329.500354,19.4228571 331.463514,19.028997 333.525803,19.028997 C335.549244,19.028997 337.503027,19.4288754 339.326201,20.2032219 C341.154732,20.9875988 342.760893,22.0581763 344.129948,23.3915502 C345.477569,24.7195745 346.572009,26.3097264 347.367052,28.0971429 C348.158746,29.8945897 348.551244,31.8210942 348.551244,33.8338602 M353.305427,25.5607903 C352.188214,22.9916717 350.632957,20.7341641 348.694579,18.8156839 C346.754192,16.9045593 344.44609,15.3866261 341.835241,14.2886322 C336.602827,12.0879635 330.266596,12.0846201 325.060304,14.2886322 C322.46486,15.3866261 320.172833,16.9045593 318.241823,18.8250456 C316.306794,20.7401824 314.765603,23.0043769 313.654418,25.5607903 C312.537206,28.1419453 311.962524,30.9290578 311.962524,33.8338602 C311.962524,36.7373252 312.537206,39.5244377 313.654418,42.0895441 C314.765603,44.6332523 316.316841,46.8941033 318.244502,48.8092401 C320.172833,50.7230395 322.468209,52.2483283 325.060304,53.3463222 C327.664455,54.4456535 330.492986,55 333.442749,55 C336.389163,55 339.223723,54.4456535 341.835241,53.3463222 C344.44609,52.2483283 346.750843,50.7230395 348.694579,48.8092401 C350.632957,46.9134954 352.188214,44.6486322 353.305427,42.0895441 C354.428668,39.5244377 355,36.7500304 355,33.8338602 C355,30.9257143 354.428668,28.1359271 353.305427,25.5607903" id="Fill-1" fill="#FFFFFF"></path>
                <path d="M307.004993,44.1978663 C306.437009,43.6956778 305.689521,43.3981094 304.869696,43.3981094 C304.144981,43.3981094 303.490595,43.6274711 302.941365,44.030693 C302.781955,44.1530638 302.634601,44.2868024 302.497963,44.4339149 C301.986912,44.8685653 301.44706,45.2844924 300.869699,45.6716657 C300.06193,46.2186565 299.199908,46.7014529 298.299708,47.1233982 C297.402857,47.5359818 296.464478,47.8629726 295.513374,48.1037021 C292.59576,48.8058298 289.463814,48.4092948 286.945396,47.2905714 C285.234078,46.5322736 283.731065,45.4677143 282.476545,44.1370152 C281.224704,42.795617 280.235421,41.2228511 279.523433,39.4414529 C278.82417,37.6821216 278.463822,35.7462553 278.463822,33.7140973 C278.463822,31.7126991 278.82417,29.7868632 279.523433,28.0081398 C280.235421,26.2233982 281.224704,24.6492948 282.469847,23.3219392 C283.721018,21.9972584 285.22805,20.9427295 286.945396,20.1810881 C290.325836,18.6798723 294.75316,18.6417568 298.178476,20.1396292 C298.772581,20.4010881 299.35329,20.7086869 299.915246,21.0316657 C300.470503,21.3680182 301.007007,21.7317872 301.517388,22.1316657 C301.814776,22.3717264 302.12087,22.6091125 302.398834,22.8739149 C302.536141,23.010997 302.673449,23.1527599 302.823482,23.2677751 C303.391466,23.705769 304.074653,23.9658906 304.837546,23.9658906 C305.063936,23.9658906 305.290995,23.9464985 305.50131,23.8983526 C307.004993,23.588079 308.131583,22.2633982 308.131583,20.6705714 C308.131583,20.4759818 308.112828,20.2860729 308.080678,20.0888085 C307.981549,19.5598723 307.751811,19.0703891 307.429641,18.654462 C307.429641,18.6484438 307.422943,18.6350699 307.422943,18.6350699 C307.410217,18.6223647 307.404189,18.613003 307.397491,18.6096596 C307.254155,18.4311185 307.07867,18.2579271 306.893137,18.1081398 C306.701577,17.9262553 306.487913,17.7590821 306.27425,17.5965897 C306.082689,17.4287477 305.875054,17.2635805 305.66072,17.0944012 C305.463132,16.9305714 305.252147,16.7807842 305.045182,16.62431 C304.834197,16.4664985 304.623883,16.3200547 304.412898,16.1702675 C304.189188,16.0285046 303.978873,15.8914225 303.767889,15.7483222 C303.548197,15.6125775 303.324486,15.472152 303.098097,15.3451003 C302.883763,15.2187173 302.657374,15.0916657 302.427635,14.9706322 C302.194548,14.8442492 301.96146,14.7265593 301.734401,14.6122128 C301.495285,14.5065593 301.258848,14.3935502 301.016384,14.2885653 C300.786645,14.1768936 300.54686,14.0745836 300.304395,13.9809666 C300.250142,13.9555562 300.19254,13.9328207 300.132258,13.9040669 C295.23541,11.9635198 289.051892,12.0685046 284.225372,14.1702067 C281.710303,15.2762249 279.491283,16.8088693 277.646676,18.7153131 C275.794701,20.6291125 274.329867,22.9086869 273.295708,25.4778055 C272.270926,28.0402371 271.741121,30.8206626 271.741121,33.7140973 C271.741121,36.6382918 272.270926,39.4220608 273.295708,41.9878359 C274.333216,44.5322128 275.794701,46.8077751 277.639978,48.7295988 C279.491283,50.6661337 281.710303,52.203459 284.225372,53.2981094 C286.750487,54.4007842 289.546868,54.9651611 292.538158,54.9651611 C295.414245,54.9651611 298.105468,54.4235198 300.515379,53.355617 C302.816784,52.3392036 304.936675,50.9396292 306.861657,49.1903283 C307.04652,49.0499027 307.222005,48.8940973 307.378737,48.7041884 C307.841563,48.1478359 308.122206,47.42431 308.122206,46.6345836 C308.122206,46.1103283 307.994945,45.6114833 307.767886,45.1728207 C307.579674,44.7983526 307.324483,44.4686869 307.004993,44.1978663" id="Fill-3" fill="#FFFFFF"></path>
                <g id="Group-7" transform="translate(257.692170, 0.000000)">
                    <mask id="mask-2" fill="white">
                        <use xlink:href="#path-1"></use>
                    </mask>
                    <g id="Clip-6"></g>
                    <path d="M6.55994147,51.5803708 L6.55994147,6.93106991 C6.55994147,6.12529483 6.53783833,5.33757447 6.49296228,4.54918541 C6.47085915,4.05167781 6.44473727,3.56553799 6.41325705,3.09277204 C6.40321017,3.00316717 6.39383308,2.9048693 6.38780496,2.81526444 C6.20897053,1.3080304 4.97320455,0.121100304 3.4474187,0.00942857143 C3.36771347,0.00942857143 3.28800824,-0.000601823708 3.20160509,-0.000601823708 C3.11855089,-0.000601823708 3.03884566,0.00942857143 2.95579147,0.00942857143 C1.35364935,0.127118541 0.0864031498,1.42906383 0.00334895929,3.04462614 C0.00334895929,3.0961155 0,3.15027964 0,3.2011003 C0,3.25660182 0.00334895929,3.30742249 0.00334895929,3.35556839 L0.00334895929,51.5328936 L0.00334895929,51.6057812 L0.00334895929,51.6826809 C0.0448760545,53.4353252 1.46215563,54.851617 3.22705718,54.8770274 C3.24648114,54.8803708 3.25920719,54.8803708 3.27863115,54.8803708 C3.30073428,54.8803708 3.31680929,54.8803708 3.32953533,54.8770274 C5.10716292,54.851617 6.54386646,53.4099149 6.55994147,51.6378784 L6.55994147,51.6057812 L6.55994147,51.5803708 Z" id="Fill-5" fill="#FFFFFF" mask="url(#mask-2)"></path>
                </g>
                <path d="M201.466693,48.4031429 C201.434543,48.4031429 201.403063,48.3964559 201.367564,48.3964559 C200.753365,48.3964559 200.149882,48.381076 199.54506,48.3075198 C199.361537,48.2854529 199.195429,48.2566991 199.013246,48.2279453 C198.833072,48.1991915 198.648209,48.1670942 198.467365,48.1323222 C198.071518,48.0621094 197.754037,47.8915927 197.503535,47.6495258 C197.254372,47.4021094 197.048746,46.9641155 196.90809,46.4017447 C196.743991,45.7103161 196.660937,44.6965775 196.660937,43.4073374 L196.660937,19.7777325 L201.845126,19.7777325 L201.918133,19.7777325 L201.985112,19.7777325 C203.73126,19.7362736 205.126436,18.3233252 205.126436,16.5800426 C205.126436,14.8314103 203.73126,13.4151185 201.99181,13.3736596 C201.966358,13.3736596 201.944255,13.3703161 201.918133,13.3703161 C201.886653,13.3703161 201.86388,13.3736596 201.835079,13.3736596 L196.660937,13.3736596 L196.660937,3.53116717 L196.660937,3.42551368 L196.660937,3.31718541 C196.612712,1.7684924 195.520951,0.482595745 194.065493,0.126851064 C193.810302,0.063325228 193.540376,0.0285531915 193.257724,0.0285531915 C192.585923,0.0285531915 191.960337,0.23049848 191.431872,0.568857143 C190.496842,1.15797568 189.873936,2.19110638 189.858531,3.38137994 C189.858531,3.40010334 189.855182,3.40946505 189.855182,3.42551368 C189.855182,3.44490578 189.858531,3.46095441 189.858531,3.47365957 L189.858531,13.3736596 L185.973738,13.3736596 L185.942927,13.3736596 L185.914126,13.3736596 C184.313324,13.3863647 182.998522,14.5766383 182.768114,16.1179757 C182.742662,16.2691003 182.729936,16.422231 182.729936,16.5800426 C182.729936,16.7391915 182.742662,16.8889787 182.768114,17.0434468 C182.991824,18.5493435 184.26242,19.7202249 185.825044,19.7777325 C185.863222,19.7777325 185.9014,19.781076 185.942927,19.781076 C185.986464,19.781076 186.027991,19.7777325 186.06282,19.7777325 L189.858531,19.7777325 L189.858531,44.462535 C189.858531,46.7795562 190.131136,48.5736596 190.675677,49.9484924 C191.24366,51.3748146 192.032005,52.4821702 193.053438,53.2311064 C194.04339,53.9532948 195.232271,54.4267295 196.577882,54.6253313 C197.795564,54.7945106 199.12845,54.8914711 200.524966,54.8914711 L201.278482,54.8914711 C201.307283,54.8914711 201.338763,54.8948146 201.367564,54.8948146 C201.403063,54.8948146 201.425166,54.8914711 201.463344,54.8914711 C203.206143,54.8393131 204.620743,53.4096474 204.620743,51.6503161 C204.620743,49.88831 203.210831,48.4559696 201.466693,48.4031429" id="Fill-8" fill="#FFFFFF"></path>
                <path d="M248.272753,25.1415198 C247.213142,22.6285714 245.747638,20.4198784 243.925134,18.5749544 C242.099281,16.7293617 239.953938,15.2602432 237.527952,14.2117325 C232.560776,12.0685714 226.553412,12.126079 221.631112,14.2979939 C219.124081,15.3993313 216.901042,16.9179331 215.030313,18.8310638 C213.154896,20.7435258 211.655902,23.0170821 210.572179,25.570152 C209.477069,28.1419453 208.923821,30.9257143 208.923821,33.8338602 C208.923821,36.7406687 209.489795,39.5244377 210.617055,42.0895441 C211.72623,44.6452888 213.284166,46.9007903 215.224553,48.7931915 C217.167619,50.6909422 219.479741,52.2068693 222.081212,53.3048632 C224.698759,54.4008511 227.533318,54.965228 230.476383,54.965228 C232.857493,54.965228 235.092589,54.618845 237.138133,53.9401216 C239.158895,53.2761094 241.081198,52.3392705 242.855476,51.1550152 C243.264049,50.8668085 243.675971,50.5398176 244.084545,50.1793921 C244.135449,50.1365957 244.170948,50.0951368 244.212475,50.0603647 C244.221852,50.0476596 244.22855,50.0443161 244.237927,50.0349544 C244.815957,49.4531915 245.172956,48.6594529 245.172956,47.7734347 C245.172956,46.0047416 243.733574,44.5724012 241.961974,44.5724012 C241.304239,44.5724012 240.691379,44.7763526 240.177649,45.1127052 L239.912411,45.3133131 L239.347776,45.7325836 C238.086558,46.6600608 236.682005,47.367538 235.175643,47.840304 C231.848787,48.8841337 228.059774,48.7931915 224.883621,47.5360486 C223.153549,46.8459574 221.602311,45.8997568 220.274784,44.7155015 C218.955294,43.5412766 217.864872,42.1182979 217.03634,40.4993921 C216.379274,39.2134954 215.923821,37.8353191 215.698766,36.3896049 L215.705463,36.3896049 C215.539355,35.4862006 215.446924,34.5553799 215.446924,33.6091793 C215.446924,32.5004863 215.574184,31.4212158 215.804593,30.3760486 L215.791197,30.3760486 C215.817319,30.2817629 215.847459,30.1928267 215.87626,30.0972036 C215.91109,29.9507599 215.939891,29.7989666 215.981418,29.6525228 L215.981418,29.7066869 C216.289522,28.6421277 216.700104,27.6143465 217.231249,26.6487538 C218.077196,25.1288146 219.143505,23.7854103 220.398695,22.6573252 C221.653215,21.5406079 223.08657,20.6512462 224.669958,20.02 C227.810612,18.767538 231.519919,18.7454711 234.664592,20.0347112 C236.228556,20.68 237.649184,21.5753799 238.878252,22.6920973 C240.094594,23.8048024 241.10665,25.1415198 241.888297,26.6554407 C242.485082,27.8390274 242.929154,29.083465 243.184344,30.3760486 L220.481749,30.3760486 C218.881616,30.4589666 217.602984,31.7702736 217.602984,33.3891793 C217.602984,34.9846809 218.859513,36.2859574 220.440222,36.3896049 L246.137457,36.3896049 C246.306244,36.3896049 246.475701,36.3835866 246.625735,36.3688754 L246.667262,36.3688754 C247.018233,36.3688754 247.347101,36.3180547 247.663242,36.2130699 C248.933838,35.7971429 249.856141,34.6195745 249.875565,33.2186626 L249.875565,33.1711854 L249.875565,33.0916109 C249.846764,30.266383 249.31361,27.5855927 248.272753,25.1415198" id="Fill-10" fill="#FFFFFF"></path>
                <path d="M133.319792,38.3688693 C132.676792,37.0448571 131.753819,35.8325167 130.555561,34.764614 C129.398161,33.7114225 127.969495,32.7772584 126.332524,31.980845 C124.723014,31.1998116 122.891133,30.5291125 120.869031,29.9827903 L119.662066,29.6624863 C118.902522,29.4632158 118.094753,29.2017568 117.23608,28.874766 C116.415585,28.5611489 115.665418,28.1672888 115.000315,27.707228 C114.355306,27.2752523 113.817463,26.7416353 113.400852,26.1371368 C113.035146,25.5954954 112.85966,24.9695988 112.85966,24.2300243 C112.85966,23.4075319 113.006345,22.6920304 113.327175,22.0387173 C113.648005,21.3807234 114.102794,20.8009666 114.672787,20.3181702 C115.27292,19.8320304 115.986249,19.4415137 116.806744,19.1800547 C119.017057,18.4505106 121.940029,18.654462 124.016383,19.9089301 C124.817454,20.3756778 125.521406,20.9494164 126.1202,21.6007234 L126.116851,21.6007234 L126.883092,22.6412097 C126.98825,22.8103891 127.104794,22.9728815 127.226026,23.1179878 C127.843574,23.808079 128.729709,24.2460729 129.735066,24.2460729 C131.573645,24.2460729 133.06795,22.7528815 133.06795,20.9139757 C133.06795,20.3435805 132.935332,19.8193252 132.68282,19.3525775 C132.676792,19.3432158 132.670094,19.3365289 132.666745,19.3271672 C132.666745,19.3204802 132.660717,19.3077751 132.654019,19.3044316 C132.568286,19.1372584 132.45777,18.9874711 132.349264,18.8470456 C130.981549,16.8663769 129.309079,15.3511185 127.361324,14.3300243 C123.47988,12.2998723 118.225363,11.9922736 114.278279,13.3356778 C112.640638,13.8853435 111.228047,14.694462 110.069977,15.7322736 C108.912577,16.7707538 107.991613,18.0278967 107.354641,19.4736109 C106.698915,20.9106322 106.371387,22.5215137 106.371387,24.2714833 C106.371387,25.8175015 106.753168,27.2658906 107.516061,28.5771976 C108.238766,29.8276535 109.196569,30.9610881 110.376072,31.9454043 C111.520746,32.910997 112.836887,33.7428511 114.278279,34.4316049 C115.694219,35.1136717 117.149677,35.6666809 118.639294,36.0826079 C119.719669,36.3407234 120.833532,36.6637021 121.96816,37.0762857 C123.058581,37.4607842 124.06059,37.9495988 124.954762,38.5186565 C125.800709,39.0696596 126.50332,39.715617 127.031116,40.4578663 C127.511357,41.127228 127.747794,41.8935502 127.747794,42.8083222 C127.747794,43.8013313 127.511357,44.6171368 127.021739,45.307228 C126.50332,46.0461337 125.82951,46.6660122 125.015713,47.1568328 C124.182492,47.6650395 123.25617,48.0522128 122.273585,48.2976231 C120.530786,48.7329422 119.16709,48.8539757 117.322483,48.3711793 C116.536818,48.1765897 115.748473,47.8629726 114.993617,47.465769 C114.236752,47.0598723 113.532801,46.5643708 112.891141,45.9632158 C112.356647,45.4777447 111.914584,44.9133678 111.561604,44.2868024 C111.548878,44.2714225 111.539501,44.2553739 111.533472,44.2393252 C110.966829,43.2115441 109.863681,42.5120912 108.604473,42.5120912 C108.171787,42.5120912 107.758526,42.5950091 107.380093,42.7474711 L107.149015,42.8417568 C106.025104,43.3820608 105.252834,44.5261945 105.252834,45.858231 C105.252834,46.2835198 105.335888,46.694766 105.483912,47.0725775 C105.506685,47.1140365 105.516062,47.1568328 105.538165,47.2049787 C105.980228,48.2340973 106.575673,49.1675927 107.291011,50.0094772 C108.229389,51.1041277 109.360668,52.0282614 110.655375,52.7611489 C111.923961,53.473307 113.317798,54.0169544 114.803396,54.3847356 C116.284976,54.7337933 117.84894,54.9237021 119.443714,54.9237021 C121.373385,54.9237021 123.243443,54.6609058 125.002987,54.1520304 C126.783963,53.6277751 128.376728,52.8601155 129.738415,51.8383526 C131.128233,50.8058906 132.250804,49.5106322 133.06795,47.9900243 C133.886436,46.4460122 134.311084,44.6773191 134.311084,42.7320912 C134.311084,41.188079 133.977528,39.715617 133.319792,38.3688693" id="Fill-12" fill="#FFFFFF"></path>
                <path d="M156.691576,48.4031429 C156.659426,48.4031429 156.619909,48.3964559 156.591108,48.3964559 C155.976239,48.3964559 155.379454,48.381076 154.761906,48.3075198 C154.58776,48.2854529 154.421652,48.2566991 154.240138,48.2279453 C154.051257,48.1991915 153.867734,48.1670942 153.690909,48.1323222 C153.288364,48.0621094 152.97758,47.8915927 152.729757,47.6495258 C152.474567,47.4021094 152.274969,46.9641155 152.131633,46.4017447 C151.966865,45.7103161 151.88381,44.6965775 151.88381,43.4073374 L151.88381,19.7777325 L157.061971,19.7777325 L157.141676,19.7777325 L157.207316,19.7777325 C158.946766,19.7362736 160.349979,18.3233252 160.349979,16.5800426 C160.349979,14.8314103 158.956143,13.4151185 157.216693,13.3736596 C157.191241,13.3736596 157.16378,13.3703161 157.141676,13.3703161 C157.106847,13.3703161 157.087423,13.3736596 157.058622,13.3736596 L151.88381,13.3736596 L151.88381,3.53116717 L151.88381,3.42551368 L151.88381,3.31718541 C151.832906,1.7684924 150.747843,0.482595745 149.289037,0.126851064 C149.033176,0.063325228 148.76392,0.0285531915 148.477919,0.0285531915 C147.806118,0.0285531915 147.181872,0.23049848 146.652066,0.568857143 C145.719716,1.15797568 145.100828,2.19110638 145.084753,3.38137994 C145.084753,3.40010334 145.081404,3.40946505 145.081404,3.42551368 C145.081404,3.44490578 145.084753,3.46095441 145.084753,3.47365957 L145.084753,13.3736596 L141.19996,13.3736596 L141.171159,13.3736596 L141.142358,13.3736596 C139.539546,13.3863647 138.216707,14.5766383 137.995006,16.1179757 C137.969554,16.2691003 137.959507,16.422231 137.959507,16.5800426 C137.959507,16.7391915 137.969554,16.8889787 137.995006,17.0434468 C138.216707,18.5493435 139.488642,19.7202249 141.045238,19.7777325 C141.089445,19.7777325 141.126283,19.781076 141.171159,19.781076 C141.212686,19.781076 141.244836,19.7777325 141.286364,19.7777325 L145.084753,19.7777325 L145.084753,44.462535 C145.084753,46.7795562 145.347981,48.5736596 145.901899,49.9484924 C146.460506,51.3748146 147.258898,52.4821702 148.276981,53.2311064 C149.266264,53.9532948 150.452465,54.4267295 151.794728,54.6253313 C153.021787,54.7945106 154.351324,54.8914711 155.74516,54.8914711 L156.498676,54.8914711 C156.533505,54.8914711 156.558958,54.8948146 156.591108,54.8948146 C156.619909,54.8948146 156.650049,54.8914711 156.682199,54.8914711 C158.434375,54.8393131 159.837589,53.4096474 159.837589,51.6503161 C159.837589,49.88831 158.437724,48.4559696 156.691576,48.4031429" id="Fill-14" fill="#FFFFFF"></path>
                <path d="M66.3717517,30.3761155 C66.3911756,30.2818298 66.4199767,30.1928936 66.4420798,30.0972705 C66.4166277,30.1928936 66.3844777,30.2818298 66.3623746,30.3761155 L66.3717517,30.3761155 Z" id="Fill-16" fill="#FFFFFF"></path>
                <path d="M66.4420128,30.0972036 C66.4741628,29.9668085 66.505643,29.8377508 66.5471701,29.7066869 L66.5471701,29.6525228 C66.505643,29.7989666 66.4741628,29.9507599 66.4420128,30.0972036" id="Fill-18" fill="#FFFFFF"></path>
                <path d="M98.8315396,25.1415198 C97.781306,22.6285714 96.3178108,20.4198784 94.4899488,18.5749544 C92.6640962,16.7293617 90.5140643,15.2602432 88.0947761,14.2117325 C83.1262601,12.0685714 77.1182271,12.126079 72.1945872,14.2979939 C69.691575,15.3993313 67.4665264,16.9179331 65.5991467,18.8310638 C63.72239,20.7435258 62.2187072,23.0170821 61.1363236,25.570152 C60.0432233,28.1419453 59.4893054,30.9257143 59.4893054,33.8338602 C59.4893054,36.7406687 60.0606379,39.5244377 61.1811996,42.0895441 C62.2950635,44.6452888 63.8469712,46.9007903 65.7893676,48.7931915 C67.7331036,50.6909422 70.0458949,52.2068693 72.6473665,53.3048632 C75.2669224,54.4008511 78.0947837,54.965228 81.0432074,54.965228 C83.4209685,54.965228 85.6607525,54.618845 87.7049573,53.9401216 C89.7257193,53.2761094 91.6426636,52.3392705 93.420961,51.1550152 C93.8308736,50.8668085 94.241456,50.5398176 94.6547176,50.1793921 C94.7022728,50.1365957 94.7377718,50.0951368 94.781978,50.0603647 C94.788676,50.0476596 94.7953739,50.0443161 94.804751,50.0349544 C95.380772,49.4531915 95.7304033,48.6594529 95.7304033,47.7734347 C95.7304033,46.0047416 94.2983883,44.5724012 92.5267888,44.5724012 C91.8663741,44.5724012 91.2582031,44.7763526 90.7438029,45.1127052 L90.4758862,45.3133131 L89.9219683,45.7325836 C88.6533825,46.6600608 87.248829,47.367538 85.7310806,47.840304 C82.4142714,48.8841337 78.6265984,48.7931915 75.4424079,47.5360486 C73.7156845,46.8459574 72.1657861,45.8997568 70.8409378,44.7155015 C69.5207781,43.5412766 68.4323663,42.1182979 67.5991452,40.4993921 C66.9414096,39.2134954 66.4899699,37.8353191 66.2602313,36.3896049 L66.2696084,36.3896049 C66.106849,35.4862006 66.0097292,34.5553799 66.0097292,33.6091793 C66.0097292,32.5004863 66.1416781,31.4212158 66.3714168,30.3760486 L66.3620397,30.3760486 C66.3848126,30.2817629 66.4162928,30.1928267 66.4417449,30.0972036 C66.4738949,29.9507599 66.5060449,29.7989666 66.547572,29.6525228 L66.547572,29.7066869 C66.8523273,28.6421277 67.2689378,27.6143465 67.7974036,26.6487538 C68.6493789,25.1288146 69.70765,23.7854103 70.9635097,22.6573252 C72.2133413,21.5406079 73.6513845,20.6512462 75.2334328,20.02 C78.3714077,18.767538 82.0900921,18.7454711 85.228067,20.0347112 C86.7987289,20.68 88.2139991,21.5753799 89.4383786,22.6920973 C90.6580696,23.8048024 91.6681157,25.1415198 92.4551211,26.6554407 C93.0519057,27.8390274 93.4912891,29.083465 93.7444704,30.3760486 L71.0499129,30.3760486 C69.4477708,30.4589666 68.1691381,31.7702736 68.1691381,33.3891793 C68.1691381,34.9846809 69.4249978,36.2859574 71.0083858,36.3896049 L96.6975827,36.3896049 C96.8744078,36.3896049 97.0405162,36.3835866 97.1925589,36.3688754 L97.234086,36.3688754 C97.585057,36.3688754 97.9119154,36.3180547 98.2267176,36.2130699 C99.4986523,35.7971429 100.418277,34.6195745 100.44038,33.2186626 L100.44038,33.1711854 L100.44038,33.0916109 C100.411579,30.266383 99.8770847,27.5855927 98.8315396,25.1415198" id="Fill-20" fill="#FFFFFF"></path>
                <g id="Group-24" transform="translate(0.000000, 12.846395)">
                    <mask id="mask-4" fill="white">
                        <use xlink:href="#path-3"></use>
                    </mask>
                    <g id="Clip-23"></g>
                    <path d="M35.2033224,4.63537994 C35.2575755,4.50966565 35.3084797,4.39130699 35.3627329,4.27361702 C35.4839652,3.93726444 35.5576423,3.57550152 35.5576423,3.19768997 C35.5576423,2.0950152 35.0003755,1.12139818 34.1544283,0.549665653 C33.6420376,0.203951368 33.0244895,1.41831331e-14 32.3640747,1.41831331e-14 C31.2100233,1.41831331e-14 30.2140428,0.607173252 29.6473989,1.52462006 C29.5020541,1.70784195 29.3613978,1.93720365 29.2435144,2.21337386 C29.2435144,2.21337386 19.7405075,24.8519757 18.2307967,28.2997568 L17.743858,29.4024316 C17.6065507,29.0761094 17.4692433,28.7537994 17.3332756,28.4274772 L6.19597657,2.0568997 C6.18325052,2.03148936 6.16717552,2.01544073 6.15779843,1.99805471 C5.69028372,0.831854103 4.53757193,1.41831331e-14 3.20133717,1.41831331e-14 C2.65277764,1.41831331e-14 2.14641499,0.146443769 1.69162632,0.393191489 C0.689617698,0.927477204 -0.000267916744,1.97264438 -0.000267916744,3.19768997 C-0.000267916744,3.58820669 0.076758147,3.95665653 0.209376935,4.30237082 L0.327260302,4.56984802 L15.542922,40.3402432 C15.7056814,40.7294225 15.9340804,41.0651064 16.2321378,41.3633435 C16.9374286,42.0454103 18.4042728,42.2045593 19.2696439,41.3285714 C19.5167971,41.0651064 19.7083575,40.7782371 19.8456649,40.4679635 C19.8456649,40.4679635 34.7391566,5.67452888 35.2033224,4.63537994" id="Fill-22" fill="#FFFFFF" mask="url(#mask-4)"></path>
                </g>
                <path d="M56.359569,13.4406626 C55.8344522,13.0661945 55.2021687,12.8461945 54.5129528,12.8461945 C53.2899129,12.8461945 52.2450376,13.5396292 51.6971479,14.5513617 C51.5792645,14.7078359 51.4801353,14.8750091 51.3990905,15.0629119 L39.870633,42.2680182 L38.7433733,39.5818784 L36.8023165,34.882304 C36.7869113,34.8568936 36.7708363,34.8441884 36.7674873,34.825465 C36.7085456,34.6944012 36.6254914,34.5874103 36.5518143,34.4697204 C36.0079434,33.4974407 35.0005764,32.8220608 33.801649,32.8220608 C33.257778,32.8220608 32.7487362,32.9705106 32.2966267,33.215921 C31.2912691,33.749538 30.6020533,34.799386 30.6020533,36.0184134 C30.6020533,36.4029119 30.6817585,36.7466201 30.8043304,37.0863161 C30.8076794,37.0990213 30.8076794,37.1150699 30.8110283,37.1277751 L30.9322606,37.3905714 L34.9014472,46.6599939 L34.9114941,46.6566505 L35.1365441,47.1889301 L35.1331952,47.1889301 L35.1807504,47.3006018 L37.5893219,52.863459 L37.8719741,53.5054043 C38.2216054,54.2543404 38.9891869,54.7658906 39.8639351,54.7719088 C39.9134997,54.7719088 39.9550268,54.7785957 39.989856,54.7785957 C40.5404249,54.7785957 41.0179865,54.590693 41.3897209,54.2195684 C41.646921,53.9627903 41.8512075,53.6852827 42.0441076,53.3201763 C44.6971531,47.1728815 54.8371321,23.3346444 57.3776526,17.4401155 C57.4258776,17.3398116 57.4720933,17.2381702 57.5102714,17.1325167 C57.6408808,16.7961641 57.7212558,16.428383 57.7212558,16.0445532 C57.7212558,14.9606018 57.180064,14.0177447 56.359569,13.4406626" id="Fill-25" fill="#FFFFFF"></path>
            </g>
        </g>
    </g>
</svg>